<?xml version="1.0" encoding="UTF-8"?>
<!DOCTYPE svg PUBLIC "-//W3C//DTD SVG 1.1//EN" "http://www.w3.org/Graphics/SVG/1.1/DTD/svg11.dtd">
<svg xmlns="http://www.w3.org/2000/svg" version="1.1" width="167px" height="148px" style="shape-rendering:geometricPrecision; text-rendering:geometricPrecision; image-rendering:optimizeQuality; fill-rule:evenodd; clip-rule:evenodd" xmlns:xlink="http://www.w3.org/1999/xlink">
<g><path style="opacity:1" fill="#fcfcfe" d="M -0.5,-0.5 C 55.1667,-0.5 110.833,-0.5 166.5,-0.5C 166.5,48.8333 166.5,98.1667 166.5,147.5C 110.833,147.5 55.1667,147.5 -0.5,147.5C -0.5,98.1667 -0.5,48.8333 -0.5,-0.5 Z"/></g>
<g><path style="opacity:1" fill="#291fea" d="M 74.5,0.5 C 110.694,-2.32832 136.86,12.3383 153,44.5C 164.848,80.2882 156.015,109.788 126.5,133C 101.204,147.507 75.5372,148.173 49.5,135C 16.8949,112.078 7.06158,81.5776 20,43.5C 31.2874,20.3723 49.4541,6.03894 74.5,0.5 Z"/></g>
<g><path style="opacity:1" fill="#e6e6f4" d="M 74.5,3.5 C 114.305,0.644232 140.805,17.9776 154,55.5C 160.199,95.6147 144.699,123.448 107.5,139C 68.1688,147.914 39.6688,134.414 22,98.5C 11.3635,66.2027 18.8635,39.0361 44.5,17C 53.7421,10.5405 63.7421,6.04052 74.5,3.5 Z"/></g>
<g><path style="opacity:1" fill="#1c15eb" d="M 74.5,6.5 C 115.544,3.74638 141.378,22.0797 152,61.5C 155.198,97.2918 140.365,122.125 107.5,136C 74.3516,144.289 48.1849,134.456 29,106.5C 12.61,72.7199 18.4433,43.5533 46.5,19C 55.0612,12.8817 64.3946,8.715 74.5,6.5 Z"/></g>
<g><path style="opacity:1" fill="#e0e0f2" d="M 78.5,129.5 C 77.5,129.5 76.5,129.5 75.5,129.5C 75.4348,131.696 74.7681,133.696 73.5,135.5C 73.5787,133.071 73.2453,130.571 72.5,128C 74.9894,127.059 76.9894,127.559 78.5,129.5 Z"/></g>
<g><path style="opacity:1" fill="#d7d6ee" d="M 91.5,127.5 C 95.254,128.828 96.4207,131.494 95,135.5C 93.5064,136.747 92.0064,136.747 90.5,135.5C 91.2739,134.289 92.1072,134.289 93,135.5C 93.6924,134.975 94.1924,134.308 94.5,133.5C 93.1524,133.55 91.6524,133.217 90,132.5C 89.36,130.457 89.86,128.79 91.5,127.5 Z"/></g>
<g><path style="opacity:1" fill="#0000e4" d="M 91.5,129.5 C 93.337,129.639 93.6704,130.306 92.5,131.5C 91.7025,131.043 91.3691,130.376 91.5,129.5 Z"/></g>
<g><path style="opacity:1" fill="#d6d6f0" d="M 78.5,129.5 C 80.6349,128.034 82.6349,128.2 84.5,130C 83.1667,130.333 81.8333,130.667 80.5,131C 85.8981,134.177 85.5648,136.177 79.5,137C 78.8333,136.333 78.1667,135.667 77.5,135C 79.2251,135.409 80.8918,135.242 82.5,134.5C 79.6582,133.996 78.3249,132.329 78.5,129.5 Z"/></g>
<g><path style="opacity:1" fill="#d4d2f1" d="M 61.5,122.5 C 62.6491,122.791 63.3158,123.624 63.5,125C 63.2191,127.292 62.5524,129.458 61.5,131.5C 60.7379,130.372 60.0712,129.205 59.5,128C 58.2624,128.077 57.2624,127.911 56.5,127.5C 57.8818,125.451 59.5484,123.785 61.5,122.5 Z"/></g>
<g><path style="opacity:1" fill="#d2d3ee" d="M 66.5,125.5 C 70.4193,124.746 71.7527,126.08 70.5,129.5C 68.0611,125.843 66.7278,126.509 66.5,131.5C 71.1001,131.345 71.4334,132.012 67.5,133.5C 66.5581,133.392 65.7247,133.059 65,132.5C 64.1668,129.829 64.6668,127.496 66.5,125.5 Z"/></g>
<g><path style="opacity:1" fill="#d9d9ef" d="M 102.5,124.5 C 106.919,125.323 107.586,127.49 104.5,131C 108.269,131.766 108.102,132.599 104,133.5C 103.5,133.167 103,132.833 102.5,132.5C 104.156,130.588 104.489,128.588 103.5,126.5C 102.833,127.167 102.167,127.833 101.5,128.5C 101.167,128.167 100.833,127.833 100.5,127.5C 101.193,126.482 101.859,125.482 102.5,124.5 Z"/></g>
<g><path style="opacity:1" fill="#d2d3ed" d="M 109.5,121.5 C 113.35,121.701 114.35,123.534 112.5,127C 113.5,127.333 114.5,127.667 115.5,128C 110.037,131.808 108.704,130.808 111.5,125C 111.167,124.5 110.833,124 110.5,123.5C 109.833,124.167 109.167,124.833 108.5,125.5C 108.167,125.167 107.833,124.833 107.5,124.5C 108.193,123.482 108.859,122.482 109.5,121.5 Z"/></g>
<g><path style="opacity:1" fill="#d0ceee" d="M 126.5,112.5 C 127.931,112.881 128.764,113.881 129,115.5C 129.893,114.289 130.726,114.289 131.5,115.5C 129.578,116.96 128.911,118.627 129.5,120.5C 127.765,119.943 126.098,119.61 124.5,119.5C 125.471,118.038 125.138,116.705 123.5,115.5C 124.993,114.859 125.993,113.859 126.5,112.5 Z"/></g>
<g><path style="opacity:1" fill="#dfdef0" d="M 46.5,112.5 C 48.0783,113.066 49.4116,114.066 50.5,115.5C 49.8333,116.167 49.1667,116.833 48.5,117.5C 49.5896,118.609 49.5896,119.609 48.5,120.5C 47.8076,119.975 47.3076,119.308 47,118.5C 46.6924,119.308 46.1924,119.975 45.5,120.5C 44.2888,119.726 44.2888,118.893 45.5,118C 43.5946,117.174 43.2612,116.007 44.5,114.5C 46.2141,115.609 46.8808,114.942 46.5,112.5 Z"/></g>
<g><path style="opacity:1" fill="#c6c3ed" d="M 35.5,102.5 C 37.4817,102.995 39.4817,103.495 41.5,104C 39.6789,105.743 37.6789,107.243 35.5,108.5C 34.5,107.167 33.5,105.833 32.5,104.5C 33.2739,103.289 34.1072,103.289 35,104.5C 35.4643,103.906 35.631,103.239 35.5,102.5 Z"/></g>
<g><path style="opacity:1" fill="#d7d6ee" d="M 34.5,93.5 C 36.2926,93.8836 37.2926,95.0503 37.5,97C 36.2063,99.076 34.3729,100.576 32,101.5C 29.9549,100.362 29.2883,98.6953 30,96.5C 30.9147,97.3279 31.5814,98.3279 32,99.5C 31.9646,95.7548 32.9646,95.0881 35,97.5C 35.195,96.1807 35.0283,94.8474 34.5,93.5 Z"/></g>
<g><path style="opacity:1" fill="#d6d4f0" d="M 136.5,95.5 C 137.239,95.369 137.906,95.5357 138.5,96C 136.993,96.8373 136.493,98.0039 137,99.5C 141.356,95.2611 142.856,96.0944 141.5,102C 139.696,100.889 137.529,100.389 135,100.5C 134.387,98.5048 134.887,96.8381 136.5,95.5 Z"/></g>
<g><path style="opacity:1" fill="#e4e6f1" d="M 138.5,89.5 C 140.994,91.3982 143.66,91.8982 146.5,91C 145.853,92.6095 145.02,94.1095 144,95.5C 141.961,93.5825 140.127,91.5825 138.5,89.5 Z"/></g>
<g><path style="opacity:1" fill="#dbdaf0" d="M 32.5,87.5 C 34.256,88.5521 34.9227,90.2188 34.5,92.5C 32.1806,93.167 29.8473,93.3336 27.5,93C 28.6651,91.9164 29.9984,91.0831 31.5,90.5C 32.3857,89.675 32.719,88.675 32.5,87.5 Z"/></g>
<g><path style="opacity:1" fill="#d2d1f0" d="M 30.5,80.5 C 32.7409,81.2998 33.7409,82.9664 33.5,85.5C 30.7557,86.205 28.089,86.205 25.5,85.5C 26.7357,84.6433 28.069,83.9766 29.5,83.5C 30.3857,82.675 30.719,81.675 30.5,80.5 Z"/></g>
<g><path style="opacity:1" fill="#d3d2f1" d="M 140.5,80.5 C 142.764,81.2186 145.097,81.552 147.5,81.5C 147.686,87.704 145.186,89.0374 140,85.5C 139.616,83.8034 139.782,82.1368 140.5,80.5 Z"/></g>
<g><path style="opacity:1" fill="#3329ea" d="M 141.5,82.5 C 148.075,83.5882 148.075,84.5882 141.5,85.5C 141.5,84.5 141.5,83.5 141.5,82.5 Z"/></g>
<g><path style="opacity:1" fill="#cacaee" d="M 140.5,73.5 C 143.167,73.5 145.833,73.5 148.5,73.5C 148.785,75.288 148.452,76.9547 147.5,78.5C 146.749,77.624 146.249,76.624 146,75.5C 145,78.1667 144,78.1667 143,75.5C 142.751,76.624 142.251,77.624 141.5,78.5C 140.548,76.9547 140.215,75.288 140.5,73.5 Z"/></g>
<g><path style="opacity:1" fill="#d4d3f1" d="M 26.5,72.5 C 32.0159,72.4734 33.3492,74.64 30.5,79C 24.3389,79.878 23.0055,77.7113 26.5,72.5 Z"/></g>
<g><path style="opacity:1" fill="#3e32ea" d="M 26.5,74.5 C 27.8333,74.5 29.1667,74.5 30.5,74.5C 30.5,75.5 30.5,76.5 30.5,77.5C 29.1266,77.6567 27.7932,77.49 26.5,77C 25.4019,76.2303 25.4019,75.397 26.5,74.5 Z"/></g>
<g><path style="opacity:1" fill="#cfcfef" d="M 140.5,64.5 C 143.247,64.1866 145.914,64.52 148.5,65.5C 147.91,66.7989 146.91,67.6322 145.5,68C 146.624,68.2492 147.624,68.7492 148.5,69.5C 145.894,70.6517 143.227,70.8184 140.5,70C 141.5,69 142.5,68 143.5,67C 141.881,66.7645 140.881,65.9311 140.5,64.5 Z"/></g>
<g><path style="opacity:1" fill="#dcdcf0" d="M 25.5,60.5 C 28.1003,61.4676 30.4336,62.8009 32.5,64.5C 31.2713,65.2811 29.938,65.7811 28.5,66C 29.91,66.3678 30.91,67.2011 31.5,68.5C 29.2351,69.6474 26.9018,69.8141 24.5,69C 25.8333,68.6667 27.1667,68.3333 28.5,68C 23.1381,65.8261 23.4715,64.4928 29.5,64C 27.4556,63.5017 26.1223,62.335 25.5,60.5 Z"/></g>
<g><path style="opacity:1" fill="#d5d3ef" d="M 143.5,54.5 C 144.5,54.5 145.5,54.5 146.5,54.5C 146.662,56.5273 146.495,58.5273 146,60.5C 142.456,63.3196 139.956,62.4863 138.5,58C 139.921,56.3771 141.588,55.2105 143.5,54.5 Z"/></g>
<g><path style="opacity:1" fill="#4535e9" d="M 140.5,57.5 C 141.833,57.5 143.167,57.5 144.5,57.5C 144.5,58.5 144.5,59.5 144.5,60.5C 142.027,60.9118 140.694,59.9118 140.5,57.5 Z"/></g>
<g><path style="opacity:1" fill="#d7d8ee" d="M 27.5,53.5 C 28.2389,53.369 28.9056,53.5357 29.5,54C 28.5494,54.7175 28.3828,55.5509 29,56.5C 32.7552,52.2125 34.4219,52.8792 34,58.5C 33.3333,59.1667 32.6667,59.8333 32,60.5C 32,59.1667 32,57.8333 32,56.5C 27.6516,59.5577 26.1516,58.5577 27.5,53.5 Z"/></g>
<g><path style="opacity:1" fill="#e0e0f2" d="M 141.5,46.5 C 142.376,46.3691 143.043,46.7025 143.5,47.5C 141.345,48.4104 139.345,49.5771 137.5,51C 138,51.5 138.5,52 139,52.5C 140.599,50.9644 142.433,50.4644 144.5,51C 142.545,53.0714 140.212,53.7381 137.5,53C 136.253,51.5064 136.253,50.0064 137.5,48.5C 139.026,48.0057 140.359,47.339 141.5,46.5 Z"/></g>
<g><path style="opacity:1" fill="#d2d1f0" d="M 30.5,44.5 C 33.5158,44.8406 36.1825,46.0073 38.5,48C 34.7868,48.2301 34.1201,49.3968 36.5,51.5C 33.8235,52.2171 31.4902,51.3838 29.5,49C 30.624,48.7508 31.624,48.2508 32.5,47.5C 31.3881,46.7348 30.7214,45.7348 30.5,44.5 Z"/></g>
<g><path style="opacity:1" fill="#e0e0f1" d="M 33.5,41.5 C 36.0716,40.7436 38.4049,41.5769 40.5,44C 37.793,44.3174 35.4597,43.4841 33.5,41.5 Z"/></g>
<g><path style="opacity:1" fill="#d7d6f0" d="M 137.5,39.5 C 139.257,40.292 140.591,41.6253 141.5,43.5C 140.609,44.5896 139.609,44.5896 138.5,43.5C 137.086,44.624 135.586,45.624 134,46.5C 133.5,46 133,45.5 132.5,45C 133.665,43.9164 134.998,43.0831 136.5,42.5C 137.386,41.675 137.719,40.675 137.5,39.5 Z"/></g>
<g><path style="opacity:1" fill="#d4d0f0" d="M 131.5,33.5 C 134.767,33.4239 136.101,34.7573 135.5,37.5C 132.895,34.8009 132.228,35.1343 133.5,38.5C 133.547,40.0004 132.881,41.0004 131.5,41.5C 129.728,40.7303 128.728,39.3969 128.5,37.5C 129.8,37.0959 130.8,35.7626 131.5,33.5 Z"/></g>
<g><path style="opacity:1" fill="#d1ceef" d="M 38.5,33.5 C 39.8221,33.33 40.9887,33.6634 42,34.5C 43.4731,42.8331 41.6398,43.4998 36.5,36.5C 37.1925,35.4822 37.8592,34.4822 38.5,33.5 Z"/></g>
<g><path style="opacity:1" fill="#e0e2f0" d="M 122.5,23.5 C 124.117,24.5893 124.95,26.256 125,28.5C 125.811,27.0403 126.645,26.707 127.5,27.5C 126.167,29.1667 124.833,30.8333 123.5,32.5C 122.702,30.9223 122.202,29.2556 122,27.5C 121.163,29.0074 119.996,29.5074 118.5,29C 120.439,27.5679 121.772,25.7346 122.5,23.5 Z"/></g>
<g><path style="opacity:1" fill="#d3d2ef" d="M 46.5,24.5 C 51.5011,23.6714 53.6678,25.6714 53,30.5C 47.9735,31.983 45.8069,29.983 46.5,24.5 Z"/></g>
<g><path style="opacity:1" fill="#1e18e6" d="M 48.5,25.5 C 52.1654,27.374 52.1654,28.7073 48.5,29.5C 48.5,28.1667 48.5,26.8333 48.5,25.5 Z"/></g>
<g><path style="opacity:1" fill="#d2d0ef" d="M 55.5,18.5 C 56.3764,18.3691 57.0431,18.7025 57.5,19.5C 56.1886,20.2575 55.6886,21.2575 56,22.5C 56.8928,21.2888 57.7261,21.2888 58.5,22.5C 57.846,24.1151 57.346,25.7818 57,27.5C 55.2567,25.6789 53.7567,23.6789 52.5,21.5C 53.3398,20.265 54.3398,19.265 55.5,18.5 Z"/></g>
<g><path style="opacity:1" fill="#cfcdee" d="M 116.5,19.5 C 117.693,19.9704 118.36,20.9704 118.5,22.5C 118.231,27.6841 116.731,28.3508 114,24.5C 113.107,25.7112 112.274,25.7112 111.5,24.5C 113.394,23.0546 115.06,21.3879 116.5,19.5 Z"/></g>
<g><path style="opacity:1" fill="#edeef7" d="M 77.5,21.5 C 108.609,19.6301 128.442,33.6301 137,63.5C 139.521,92.2867 127.354,111.787 100.5,122C 70.9867,127.661 50.1534,116.828 38,89.5C 30.8338,54.8141 44.0005,32.1474 77.5,21.5 Z"/></g>
<g><path style="opacity:1" fill="#342be7" d="M 127.5,51.5 C 131.798,57.7563 133.465,64.7563 132.5,72.5C 130.232,101.435 114.565,117.101 85.5,119.5C 54.4828,115.476 39.3161,97.8093 40,66.5C 40.9618,61.9974 42.2951,57.6641 44,53.5C 36.1518,81.3119 44.9851,101.812 70.5,115C 74.1117,116.15 77.7783,116.983 81.5,117.5C 84.5,118.833 87.5,118.833 90.5,117.5C 115.889,112.942 129.556,97.7755 131.5,72C 131.489,66.0439 130.156,60.5439 127.5,55.5C 127.5,54.1667 127.5,52.8333 127.5,51.5 Z"/></g>
<g><path style="opacity:1" fill="#f2f6f6" d="M 127.5,55.5 C 130.156,60.5439 131.489,66.0439 131.5,72C 129.556,97.7755 115.889,112.942 90.5,117.5C 114.406,103.889 126.739,83.2227 127.5,55.5 Z"/></g>
<g><path style="opacity:1" fill="#36e632" d="M 47.5,48.5 C 47.8333,48.5 48.1667,48.5 48.5,48.5C 73.5,48.5 98.5,48.5 123.5,48.5C 124.391,49.1098 125.391,49.4431 126.5,49.5C 126.328,50.4916 126.662,51.1583 127.5,51.5C 127.5,52.8333 127.5,54.1667 127.5,55.5C 126.739,83.2227 114.406,103.889 90.5,117.5C 87.5,118.833 84.5,118.833 81.5,117.5C 56.0199,102.546 44.1865,80.2124 46,50.5C 46.7172,49.9558 47.2172,49.2891 47.5,48.5 Z"/></g>
<g><path style="opacity:1" fill="#e6f9e4" d="M 50.5,51.5 C 74.5023,51.3334 98.5023,51.5 122.5,52C 125.443,80.4343 114.11,101.434 88.5,115C 86.8333,115.667 85.1667,115.667 83.5,115C 57.9938,101.149 46.9938,79.9825 50.5,51.5 Z"/></g>
<g><path style="opacity:1" fill="#21e71b" d="M 52.5,52.5 C 74.8358,52.3334 97.1692,52.5 119.5,53C 121.919,54.6856 122.919,57.019 122.5,60C 121.129,84.2581 109.795,102.091 88.5,113.5C 87.3361,107.193 87.1694,100.859 88,94.5C 90.2952,92.2568 93.1285,90.9235 96.5,90.5C 93.8929,89.6816 91.2263,89.1816 88.5,89C 88.8333,88.6667 89.1667,88.3333 89.5,88C 87.6787,85.544 87.012,82.7107 87.5,79.5C 86.5,79.5 85.5,79.5 84.5,79.5C 84.6641,82.1873 84.4974,84.854 84,87.5C 79.5555,84.9918 79.3888,85.4918 83.5,89C 75.0582,89.6075 74.7249,90.7742 82.5,92.5C 81.3707,94.5294 81.8707,94.8627 84,93.5C 84.6667,100.167 84.6667,106.833 84,113.5C 59.6449,100.119 49.1449,79.786 52.5,52.5 Z"/></g>
<g><path style="opacity:1" fill="#f7fcf6" d="M 74.5,67.5 C 76.337,67.6395 76.6704,68.3061 75.5,69.5C 74.7025,69.0431 74.3691,68.3764 74.5,67.5 Z"/></g>
<g><path style="opacity:1" fill="#e7fae4" d="M 84.5,57.5 C 87.2723,57.5952 89.2723,58.9285 90.5,61.5C 90,61.8333 89.5,62.1667 89,62.5C 87.6998,61.2927 86.1998,60.6261 84.5,60.5C 84.5,62.8333 84.5,65.1667 84.5,67.5C 86.1998,67.3739 87.6998,66.7073 89,65.5C 89.5,65.8333 90,66.1667 90.5,66.5C 88.5785,70.7025 85.9119,71.3692 82.5,68.5C 80.7624,64.3098 81.429,60.6432 84.5,57.5 Z"/></g>
<g><path style="opacity:1" fill="#e3f9e2" d="M 104.5,57.5 C 107.278,57.0217 109.278,58.0217 110.5,60.5C 108.587,61.0512 106.587,61.2179 104.5,61C 106.158,62.6625 108.158,63.4959 110.5,63.5C 111.169,69.0001 108.835,71.1667 103.5,70C 102.643,69.3109 101.977,68.4776 101.5,67.5C 103.805,67.3076 106.138,66.9743 108.5,66.5C 102.587,65.3794 101.254,62.3794 104.5,57.5 Z"/></g>
<g><path style="opacity:1" fill="#dff9dd" d="M 63.5,58.5 C 66.2469,58.1866 68.9135,58.52 71.5,59.5C 69.8333,60.1667 68.1667,60.8333 66.5,61.5C 67.325,62.3857 68.325,62.719 69.5,62.5C 69.5,63.5 69.5,64.5 69.5,65.5C 68.5,65.5 67.5,65.5 66.5,65.5C 66.8841,67.6648 66.2174,69.3315 64.5,70.5C 63.5091,66.5546 63.1758,62.5546 63.5,58.5 Z"/></g>
<g><path style="opacity:1" fill="#3228e7" d="M 126.5,49.5 C 125.391,49.4431 124.391,49.1098 123.5,48.5C 118.469,39.7874 111.136,33.6207 101.5,30C 79.346,23.7716 61.6793,29.9383 48.5,48.5C 48.1667,48.5 47.8333,48.5 47.5,48.5C 52.63,38.6019 60.9634,31.7686 72.5,28C 93.0999,22.7135 110.267,28.2135 124,44.5C 125.094,46.0779 125.928,47.7446 126.5,49.5 Z"/></g>
<g><path style="opacity:1" fill="#f9fafa" d="M 123.5,48.5 C 98.5,48.5 73.5,48.5 48.5,48.5C 61.6793,29.9383 79.346,23.7716 101.5,30C 111.136,33.6207 118.469,39.7874 123.5,48.5 Z"/></g>
<g><path style="opacity:1" fill="#e0e1f0" d="M 110.5,16.5 C 111.376,16.3691 112.043,16.7025 112.5,17.5C 108.785,25.2734 108.118,24.9401 110.5,16.5 Z"/></g>
<g><path style="opacity:1" fill="#d5d4f0" d="M 65.5,14.5 C 66.9778,14.238 68.3112,14.5713 69.5,15.5C 68.7261,16.7112 67.8928,16.7112 67,15.5C 66.2263,17.403 66.5596,19.0696 68,20.5C 70.4277,18.0259 70.9277,18.5259 69.5,22C 64.6325,21.7108 63.2991,19.2108 65.5,14.5 Z"/></g>
<g><path style="opacity:1" fill="#dbdbf0" d="M 95.5,12.5 C 97.4286,12.2308 99.0953,12.7308 100.5,14C 99.2624,13.9227 98.2624,14.0894 97.5,14.5C 101.5,16.5 101.5,18.5 97.5,20.5C 96.3279,20.0814 95.3279,19.4147 94.5,18.5C 95.7161,17.9041 97.0494,17.7374 98.5,18C 96.3234,16.8139 95.3234,14.9806 95.5,12.5 Z"/></g>
<g><path style="opacity:1" fill="#dcdbf2" d="M 103.5,13.5 C 105.312,13.7713 106.978,14.438 108.5,15.5C 106.484,17.249 104.818,19.249 103.5,21.5C 103.776,18.9483 103.776,16.2816 103.5,13.5 Z"/></g>
<g><path style="opacity:1" fill="#dedef3" d="M 90.5,11.5 C 92.8741,13.4013 93.0407,15.7346 91,18.5C 90.5034,16.1902 90.3367,13.8568 90.5,11.5 Z"/></g>
<g><path style="opacity:1" fill="#d2d0f0" d="M 76.5,11.5 C 78.3783,12.874 79.3783,14.874 79.5,17.5C 79.1667,18.1667 78.8333,18.8333 78.5,19.5C 77.6143,18.675 77.281,17.675 77.5,16.5C 75.0576,16.3537 74.3909,17.187 75.5,19C 74.552,19.4828 73.552,19.6495 72.5,19.5C 72.1924,17.076 72.5258,14.7427 73.5,12.5C 75.3671,15.2291 76.3671,14.8957 76.5,11.5 Z"/></g>
<g><path style="opacity:1" fill="#dfe0f1" d="M 81.5,11.5 C 83.5,11.5 85.5,11.5 87.5,11.5C 86.6914,13.9729 86.358,16.3063 86.5,18.5C 85.6667,17.5 84.8333,16.5 84,15.5C 83.7508,16.624 83.2508,17.624 82.5,18.5C 81.5258,16.2573 81.1924,13.924 81.5,11.5 Z"/></g>
<g><path style="opacity:1" fill="#3739e7" d="M 83.5,12.5 C 85.337,12.6395 85.6704,13.3061 84.5,14.5C 83.7025,14.0431 83.3691,13.3764 83.5,12.5 Z"/></g>
</svg>
