<?xml version="1.0" standalone="no"?>
<!DOCTYPE svg PUBLIC "-//W3C//DTD SVG 20010904//EN"
 "http://www.w3.org/TR/2001/REC-SVG-20010904/DTD/svg10.dtd">
<svg version="1.0" xmlns="http://www.w3.org/2000/svg"
 width="167.000000pt" height="148.000000pt" viewBox="0 0 167.000000 148.000000"
 preserveAspectRatio="xMidYMid meet">

<g transform="translate(0.000000,148.000000) scale(0.100000,-0.100000)"
fill="#000000" stroke="none">
<path d="M748 1460 c-142 -23 -306 -114 -409 -228 -72 -80 -115 -153 -152
-259 -29 -82 -31 -97 -31 -223 0 -117 4 -145 26 -212 80 -241 258 -414 498
-484 90 -26 278 -26 375 0 223 60 415 238 491 454 137 396 -90 831 -491 936
-74 20 -231 28 -307 16z m292 -36 c222 -55 405 -222 484 -443 82 -229 36 -485
-120 -675 -135 -164 -320 -251 -534 -251 -126 0 -200 18 -320 77 -118 58 -237
176 -297 298 -96 192 -106 376 -32 571 67 174 204 315 380 390 137 58 289 70
439 33z"/>
<path d="M690 1387 c-234 -70 -410 -254 -466 -487 -27 -112 -15 -276 30 -399
61 -166 228 -322 411 -383 59 -19 91 -23 205 -23 114 0 146 4 203 23 213 71
383 253 437 469 91 359 -131 723 -493 808 -94 22 -237 19 -327 -8z m188 -63
c-1 -19 -5 -34 -10 -34 -4 0 -8 5 -8 10 0 6 -4 10 -10 10 -5 0 -10 -7 -10 -16
0 -8 -4 -12 -10 -9 -5 3 -10 21 -10 40 0 24 5 35 18 37 30 7 41 -3 40 -38z
m-83 0 c8 -43 0 -54 -20 -28 -14 18 -14 18 -15 -4 0 -14 -5 -22 -12 -20 -16 6
-24 78 -9 78 6 0 11 -4 11 -10 0 -5 5 -10 10 -10 6 0 10 7 10 15 0 30 18 14
25 -21z m135 3 c0 -34 -7 -50 -19 -42 -10 6 0 75 10 75 5 0 9 -15 9 -33z m64
27 c9 -3 16 -11 16 -16 0 -6 -8 -7 -17 -4 -16 6 -16 6 0 -12 21 -23 22 -38 1
-46 -20 -8 -57 12 -48 25 4 7 10 7 17 0 6 -6 16 -11 21 -11 6 0 0 9 -14 19
-20 16 -22 21 -11 35 15 18 14 18 35 10z m-293 -31 c13 -15 12 -16 -8 -11 -24
6 -27 1 -17 -26 6 -15 7 -15 19 0 7 10 14 13 18 7 4 -6 0 -19 -8 -29 -11 -15
-18 -17 -31 -9 -27 17 -36 52 -18 70 20 19 28 19 45 -2z m388 2 c2 -2 -4 -11
-13 -20 -9 -9 -16 -23 -16 -31 0 -8 -6 -14 -14 -14 -11 0 -13 7 -6 30 5 18 5
30 -1 30 -5 0 -9 5 -9 11 0 10 48 5 59 -6z m41 -25 c0 -20 -24 -60 -36 -60
-11 0 -10 8 3 35 16 33 33 46 33 25z m-550 -18 c0 -4 -6 -14 -12 -21 -11 -10
-9 -11 6 -5 16 6 18 4 13 -10 -4 -10 -7 -24 -7 -32 0 -23 -15 -16 -34 18 -18
30 -18 32 -1 45 21 15 35 17 35 5z m613 -9 c2 -5 -1 -26 -7 -48 -12 -38 -13
-39 -24 -18 -8 14 -18 20 -27 17 -21 -9 -18 6 7 33 22 23 43 30 51 16z m-197
-27 c314 -84 474 -437 329 -726 -89 -177 -257 -280 -454 -280 -140 0 -245 40
-344 130 -173 158 -217 402 -111 618 54 111 192 222 321 257 64 18 195 18 259
1z m-474 -23 c35 -32 10 -86 -30 -64 -26 14 -34 38 -22 62 13 23 28 24 52 2z
m728 -10 c0 -25 1 -26 13 -8 8 10 16 14 20 9 6 -11 -37 -64 -53 -64 -6 0 -8
11 -5 28 6 24 5 25 -8 10 -23 -29 -28 -8 -6 23 26 36 39 37 39 2z m-823 -114
c-1 -21 -4 -39 -7 -39 -3 1 -17 11 -33 23 l-27 23 20 22 c29 31 49 19 47 -29z
m937 25 c3 -9 6 -20 6 -25 0 -14 -18 -11 -23 4 -2 6 -3 4 -2 -5 2 -10 -4 -23
-12 -29 -18 -16 -47 10 -40 37 3 17 5 16 16 -6 l11 -25 -5 26 c-2 14 -2 29 2
33 12 12 41 6 47 -10z m-959 -85 c12 -19 -2 -20 -34 -2 -41 24 -43 50 -2 28
17 -8 33 -20 36 -26z m1001 24 c17 -23 18 -36 2 -30 -7 2 -25 -2 -40 -9 -17
-9 -29 -10 -33 -4 -3 5 5 15 19 22 14 6 26 17 26 25 0 18 10 16 26 -4z m-1041
-49 c26 -17 25 -37 0 -27 -8 3 -15 1 -15 -5 0 -6 6 -12 13 -15 6 -2 9 -7 6
-11 -10 -11 -81 22 -74 33 3 6 12 8 20 4 8 -3 15 0 15 6 0 6 -4 11 -10 11 -5
0 -10 5 -10 10 0 15 28 12 55 -6z m1075 -12 c0 -5 -11 -14 -25 -20 -14 -6 -25
-16 -25 -22 0 -7 6 -7 21 0 11 6 25 9 32 7 7 -2 -2 -11 -20 -20 -28 -15 -33
-15 -47 -2 -8 9 -13 22 -10 29 9 23 74 47 74 28z m-1143 -73 c-5 -20 -5 -20
13 -4 10 9 24 14 29 10 16 -9 13 -41 -5 -56 -15 -12 -16 -11 -9 11 6 20 5 23
-6 13 -33 -32 -69 3 -37 35 17 17 21 15 15 -9z m1176 -21 c7 -24 -17 -58 -39
-58 -17 0 -44 28 -44 45 0 12 39 32 66 34 7 1 14 -9 17 -21z m-1145 -76 c2 -7
-6 -12 -20 -13 l-23 0 23 -9 c21 -9 31 -30 13 -30 -5 0 -23 -3 -40 -6 -20 -4
-31 -3 -31 5 0 6 8 11 18 11 16 1 16 1 0 14 -24 18 -23 26 5 26 20 1 20 2 5
11 -10 5 -18 14 -18 20 0 13 63 -14 68 -29z m1162 -12 c0 -5 -8 -14 -17 -19
-17 -10 -17 -10 0 -11 9 0 17 -4 17 -10 0 -5 -18 -10 -40 -10 -44 0 -49 6 -22
26 16 13 16 13 0 14 -38 0 -16 20 22 20 22 0 40 -4 40 -10z m-1167 -92 c8 -12
7 -21 -2 -32 -18 -22 -58 -20 -71 3 -21 41 49 69 73 29z m1167 -13 c0 -28 -20
-35 -21 -7 0 15 -1 14 -8 -3 -8 -19 -8 -19 -19 0 -10 18 -11 18 -12 3 0 -10
-4 -18 -10 -18 -5 0 -10 11 -10 25 0 23 4 25 40 25 36 0 40 -2 40 -25z m-1155
-66 c9 -26 6 -29 -39 -36 -41 -6 -51 11 -11 21 14 4 25 13 25 21 0 22 18 18
25 -6z m1146 3 c4 -4 3 -17 -2 -29 -17 -46 -89 -19 -74 28 6 18 12 20 38 15
17 -4 34 -10 38 -14z m-1131 -61 c0 -5 3 -16 6 -24 3 -10 -3 -17 -19 -21 -14
-3 -32 -9 -41 -12 -10 -4 -16 -1 -16 9 0 8 11 18 25 21 14 4 25 13 25 21 0 8
5 15 10 15 6 0 10 -4 10 -9z m1103 -18 c2 7 7 9 11 6 4 -3 2 -19 -4 -35 -10
-26 -13 -27 -21 -11 -6 9 -19 17 -29 17 -20 0 -34 13 -24 23 3 3 18 1 34 -3
20 -6 30 -5 33 3z m-1075 -58 c10 -22 9 -26 -18 -40 -38 -20 -47 -19 -55 6 -8
25 3 39 15 19 8 -12 10 -12 10 4 0 16 2 17 16 5 15 -12 16 -11 10 9 -10 30 8
28 22 -3z m1001 -16 c-8 -5 -9 -9 -3 -9 5 0 15 5 22 12 18 18 45 -9 31 -33
-12 -23 -34 -25 -25 -3 5 14 4 15 -9 4 -18 -15 -45 -6 -45 14 0 21 33 52 38
36 3 -7 -2 -16 -9 -21z m-959 -60 c0 -4 -14 -17 -31 -29 -29 -22 -31 -22 -44
-4 -24 32 -13 48 14 22 10 -11 11 -10 6 3 -5 12 1 16 25 16 16 0 30 -4 30 -8z
m82 -131 c-6 -6 -8 -17 -5 -24 3 -8 0 -14 -6 -14 -6 0 -11 6 -12 13 0 10 -2
10 -6 0 -2 -7 -9 -13 -15 -13 -6 0 -8 7 -4 15 3 8 1 15 -4 15 -6 0 -10 7 -10
16 0 11 5 14 16 10 11 -4 15 -2 11 8 -9 24 5 27 26 5 13 -14 16 -24 9 -31z
m788 32 c0 -5 7 -10 15 -10 17 0 20 -16 5 -25 -5 -3 -7 -12 -4 -19 3 -8 1 -17
-5 -21 -6 -3 -11 -1 -11 6 0 9 -3 9 -14 0 -15 -13 -32 1 -21 18 3 5 1 12 -5
16 -15 9 -12 25 5 25 8 0 15 5 15 10 0 6 5 10 10 10 6 0 10 -4 10 -10z m-646
-88 c7 -11 -14 -92 -24 -92 -4 0 -10 10 -13 21 -4 14 -11 20 -20 16 -28 -11
-25 5 6 34 34 30 43 34 51 21z m491 -25 c-1 -18 3 -26 12 -23 21 9 15 -12 -9
-28 -29 -20 -42 -6 -27 28 15 32 4 47 -16 20 -14 -19 -14 -19 -15 2 0 27 9 36
35 32 15 -2 20 -10 20 -31z m-71 -34 c-1 -23 2 -30 12 -26 8 3 14 1 14 -5 0
-12 -56 -33 -64 -25 -3 3 2 19 11 34 20 33 10 52 -12 23 -14 -19 -14 -18 -15
3 0 22 14 33 40 29 10 -1 15 -12 14 -33z m-349 17 c4 -6 10 -8 15 -5 5 3 21 0
37 -6 15 -7 38 -11 50 -10 11 1 24 -3 28 -8 3 -7 -3 -11 -17 -12 l-23 0 23
-11 c12 -6 22 -19 22 -29 0 -25 -38 -35 -59 -14 -15 15 -14 16 14 10 l30 -6
-22 17 c-13 9 -23 23 -23 30 0 27 -28 14 -33 -16 -4 -16 -11 -30 -17 -30 -7 0
-8 13 -4 37 6 32 5 35 -11 29 -11 -4 -22 -2 -26 5 -9 14 -29 3 -29 -17 0 -8 9
-14 21 -14 11 0 17 -4 14 -10 -9 -15 -45 -12 -51 5 -12 30 5 65 31 65 13 0 27
-5 30 -10z m231 -18 c18 -12 24 -42 14 -63 -11 -20 -50 -27 -50 -8 0 6 7 9 15
5 8 -3 15 -1 15 4 0 6 -9 10 -19 10 -25 0 -34 26 -15 45 17 17 24 18 40 7z
m54 -22 c0 -5 -4 -10 -10 -10 -5 0 -10 5 -10 10 0 6 5 10 10 10 6 0 10 -4 10
-10z m10 -40 c0 -5 -4 -10 -10 -10 -5 0 -10 5 -10 10 0 6 5 10 10 10 6 0 10
-4 10 -10z"/>
<path d="M840 1340 c0 -5 5 -10 10 -10 6 0 10 5 10 10 0 6 -4 10 -10 10 -5 0
-10 -4 -10 -10z"/>
<path d="M760 1203 c-91 -17 -237 -122 -284 -205 -12 -21 6 -7 51 42 77 83
138 121 228 145 164 42 336 -10 449 -136 25 -28 46 -55 46 -60 0 -5 5 -9 10
-9 16 0 -6 36 -52 86 -88 96 -206 145 -341 143 -45 -1 -93 -4 -107 -6z"/>
<path d="M1279 944 c5 -16 14 -42 20 -57 18 -46 24 -158 12 -222 -16 -88 -57
-162 -126 -231 -72 -73 -135 -107 -237 -128 -68 -14 -85 -14 -153 -1 -149 28
-267 118 -332 254 -31 64 -37 87 -41 165 -3 75 0 102 17 153 25 76 26 103 2
47 -86 -192 -10 -439 174 -563 264 -179 641 -25 706 289 15 70 6 202 -16 260
-21 53 -38 76 -26 34z"/>
<path d="M490 1208 c0 -18 18 -34 28 -24 3 4 -2 14 -11 23 -16 16 -17 16 -17
1z"/>
<path d="M1415 890 c-3 -5 3 -10 14 -10 12 0 21 5 21 10 0 6 -6 10 -14 10 -8
0 -18 -4 -21 -10z"/>
<path d="M275 719 c-10 -15 1 -23 20 -15 9 3 13 10 10 16 -8 13 -22 13 -30 -1z"/>
<path d="M1420 640 c0 -13 28 -25 38 -16 3 4 0 11 -8 16 -20 13 -30 12 -30 0z"/>
<path d="M920 170 c0 -5 5 -10 10 -10 6 0 10 5 10 10 0 6 -4 10 -10 10 -5 0
-10 -4 -10 -10z"/>
</g>
</svg>
