<svg xmlns="http://www.w3.org/2000/svg" width="256" height="256" id="green"><path fill="#616161" d="M128 247.322C62.1 247.322 8.678 193.9 8.678 128 8.678 194.274 62.1 248 128 248s119.322-53.726 119.322-120c0 65.9-53.422 119.322-119.322 119.322z" opacity=".2"></path><path fill="#BDBDBD" d="M128 8.678C193.9 8.678 247.322 62.1 247.322 128 247.322 61.726 193.9 8 128 8S8.678 61.726 8.678 128C8.678 62.1 62.1 8.678 128 8.678z" opacity=".2"></path><circle cx="128" cy="128" r="119.322" fill="#FAFAFA"></circle><path fill="#1B5E20" d="M73.285 59.525h107.44v.678H73.285z" opacity=".2"></path><linearGradient id="a" x1="66.247" x2="211.876" y1="67.242" y2="212.871" gradientUnits="userSpaceOnUse"><stop offset="0" stop-color="#1b5e20" stop-opacity=".2"></stop><stop offset="1" stop-color="#1b5e20" stop-opacity="0"></stop></linearGradient><path fill="url(#a)" d="M128 247.322c65.9 0 119.322-53.422 119.322-119.322 0-.258-.008-.515-.01-.772l-66.586-67.024H73.285v21.373s12.202 11.274 13.767 12.839c-10.444 11.532-14.439 22.708-14.662 32.608-.007.327.001.65.001.974.04 16.893 10.926 30.699 19.016 38.632.332.337 7.509 7.516 7.805 7.808l-25.928.276v21.083l52.24 51.494c.825.016 1.648.031 2.476.031z"></path><path fill="#4CAF50" d="M154.297 173.677s28.923-18.83 29.307-45.674c.005-.352.017-.701.012-1.055-.185-13.383-7.542-29.151-29.033-45.08 0 0 0 .457 0 0h26.142V60.203H73.285v21.373s21.761.58 27.291.58C79.87 97.93 72.691 113.641 72.39 127.023c-.007.327.001.65.001.974.064 26.888 27.611 45.966 27.611 45.966l.583.46-27.299.29v21.083h107.44v-21.663H153.72l.577-.456zm-26.588-14.367c-17.127 0-31.011-14.016-31.025-31.311l-.001-.025c0-17.306 13.89-31.336 31.026-31.336 17.135 0 31.026 14.03 31.026 31.336l-.001.025c-.014 17.295-13.898 31.311-31.025 31.311z"></path></svg>